<svg width="163" height="163" viewBox="0 0 163 163" fill="none" xmlns="http://www.w3.org/2000/svg">
<circle cx="81.5" cy="81.5" r="79.5" fill="#ECF0FF" stroke="#465FF1" stroke-width="4"/>
<path d="M82.3438 94.3947V87.8652" stroke="#465FF1" stroke-width="4" stroke-linecap="round" stroke-linejoin="round"/>
<path fill-rule="evenodd" clip-rule="evenodd" d="M98.2885 65.1921C102.638 65.1921 106.138 68.7181 106.138 73.0676V81.9211C99.8069 85.6272 91.4425 87.8663 82.3316 87.8663C73.2208 87.8663 64.882 85.6272 58.5508 81.9211V73.0419C58.5508 68.6923 62.0767 65.1921 66.4263 65.1921H98.2885Z" stroke="#465FF1" stroke-width="4" stroke-linecap="round" stroke-linejoin="round"/>
<path d="M91.3517 65.1808V64.2389C91.3517 61.099 88.8038 58.551 85.6639 58.551H79.0238C75.8839 58.551 73.3359 61.099 73.3359 64.2389V65.1808" stroke="#465FF1" stroke-width="4" stroke-linecap="round" stroke-linejoin="round"/>
<path d="M58.6133 91.3223L59.0997 97.7796C59.4291 102.132 63.0555 105.496 67.4179 105.496H97.27C101.632 105.496 105.259 102.132 105.588 97.7796L106.075 91.3223" stroke="#465FF1" stroke-width="4" stroke-linecap="round" stroke-linejoin="round"/>
</svg>
