<svg width="460" height="461" viewBox="0 0 460 461" fill="none" xmlns="http://www.w3.org/2000/svg">
<path d="M236.752 14.0512C119.314 10.5834 17.5872 95.7964 2.21797 207.606C-14.5858 329.856 77.9007 439.851 191.702 457.468C333.251 479.381 470.546 352.612 458.218 215.086C448.931 111.472 356.131 17.5762 236.752 14.0512Z" fill="#F4F7FA"/>
<path d="M236.856 321.318C243.136 329.037 249.165 334.677 255.65 341.932C215.551 354.151 179.135 373.282 138.503 385.745C147.382 331.678 164.227 303.135 127.393 251.373C110.107 227.082 68.9218 184.272 70.0152 153.939C71.2608 119.381 95.5334 119.042 79.8583 94.3109C55.3585 55.6574 59.1335 3.78214 122.704 0.064574C185.445 -3.6045 240.147 150.092 223.556 203.724C218.584 252.191 204.068 281.013 236.856 321.318Z" fill="url(#paint0_linear_228_6873)"/>
<mask id="mask0_228_6873" style="mask-type:luminance" maskUnits="userSpaceOnUse" x="65" y="0" width="191" height="386">
<path d="M236.858 321.318C243.138 329.037 249.167 334.677 255.652 341.932C215.553 354.151 179.137 373.282 138.505 385.745C147.384 331.678 164.229 303.135 127.395 251.373C110.109 227.082 68.9238 184.272 70.0171 153.939C71.2627 119.381 95.5354 119.042 79.8603 94.3109C55.3604 55.6574 59.1355 3.78214 122.706 0.064574C185.447 -3.6045 240.149 150.092 223.558 203.724C218.586 252.191 204.07 281.013 236.858 321.318Z" fill="white"/>
</mask>
<g mask="url(#mask0_228_6873)">
<g opacity="0.7">
<path d="M192.469 360.096L193.362 359.959C191.022 344.679 189.854 329.028 188.725 313.893L188.294 308.143C187.371 295.969 186.329 285.096 185.409 275.504C184.894 270.13 184.404 265.024 183.971 260.083C182.646 244.967 181.747 234.387 181.301 229.127L181.004 225.654C177.358 184.207 157.155 129.23 146.302 99.6938C145.127 96.4975 144.077 93.6401 143.189 91.1804C127.931 48.8985 117.117 3.0766 111.049 -45.0123L110.152 -44.8992C116.229 3.25597 127.058 49.143 142.34 91.4872C143.228 93.9485 144.278 96.8074 145.454 100.005C156.293 129.502 176.468 184.406 180.104 225.733L180.401 229.204C180.847 234.465 181.746 245.045 183.071 260.162C183.504 265.105 183.994 270.214 184.51 275.59C185.429 285.179 186.471 296.046 187.393 308.212L187.824 313.96C188.955 329.112 190.123 344.781 192.469 360.096Z" fill="#FCFDFE"/>
<path d="M186.34 283.42L187.235 283.297C183.522 256.022 168.174 225.48 142.848 194.973C121.754 169.564 94.3155 145.092 67.5677 127.834L67.0781 128.592C118.922 162.045 178.356 224.764 186.34 283.42Z" fill="#FCFDFE"/>
<path d="M147.334 104.924L148.078 104.412C134.56 84.8252 118.487 66.8338 102.943 49.4344C92.3054 37.5272 81.3056 25.2144 71.2148 12.4919L70.5068 13.0537C80.6142 25.7966 91.6233 38.1199 102.269 50.0364C117.794 67.4152 133.848 85.3847 147.334 104.924Z" fill="#FCFDFE"/>
<path d="M171.93 177.843C173.266 144.785 190.046 101.129 207.838 84.4189L207.22 83.7599C189.283 100.605 172.371 144.552 171.027 177.807L171.93 177.843Z" fill="#FCFDFE"/>
</g>
</g>
<path d="M250.084 149.397C253.051 204.475 219.927 201.049 177.447 198.524C196.962 246.044 214.215 293.034 231.558 340.781C260.013 342.049 280.419 342.427 287.427 308.564C295.353 270.265 298.657 247.9 337.335 228.949C376.014 209.998 399.188 171.95 375.322 136.107C350.206 98.3889 372.047 35.1567 329.502 13.9759C255.37 -22.9302 246.994 92.0445 250.084 149.397Z" fill="url(#paint1_linear_228_6873)"/>
<path d="M250.082 149.397C253.049 204.474 219.925 201.049 177.445 198.524C196.96 246.044 214.213 293.033 231.556 340.781C260.011 342.049 280.417 342.427 287.425 308.564C295.351 270.265 298.655 247.9 337.333 228.949C376.012 209.998 399.186 171.95 375.32 136.107C350.204 98.3888 372.045 35.1565 329.5 13.9758C255.368 -22.9303 246.992 92.0443 250.082 149.397Z" fill="url(#paint2_linear_228_6873)"/>
<mask id="mask1_228_6873" style="mask-type:luminance" maskUnits="userSpaceOnUse" x="177" y="6" width="208" height="336">
<path d="M250.085 149.396C253.052 204.474 219.928 201.048 177.448 198.523C196.963 246.044 214.216 293.033 231.559 340.78C260.014 342.048 280.42 342.427 287.428 308.563C295.354 270.264 298.658 247.9 337.336 228.948C376.015 209.997 399.189 171.95 375.323 136.107C350.207 98.3885 372.048 35.1562 329.503 13.9755C255.371 -22.9306 246.995 92.044 250.085 149.396Z" fill="white"/>
</mask>
<g mask="url(#mask1_228_6873)">
<path d="M218.849 277.129C254.236 246.952 282.885 220.822 302.751 182.498C321.765 145.818 326.516 110.39 318.636 64.0363C314.554 40.0191 314.344 22.3492 314.49 -1.86736L313.513 -1.87367C313.367 22.395 313.577 40.1043 317.673 64.1992C325.514 110.327 320.792 145.572 301.884 182.048C282.1 220.215 253.521 246.279 218.215 276.386L218.849 277.129Z" fill="#D8DEE8"/>
<path d="M286.922 328.764L287.499 327.977C275.144 318.937 262.623 312.232 249.22 307.477C242.361 305.045 235.691 303.922 227.786 302.984L227.671 303.954C235.511 304.884 242.12 305.995 248.894 308.398C262.206 313.12 274.645 319.782 286.922 328.764Z" fill="#D8DEE8"/>
<path d="M289.287 205.127C315.965 182.291 352.984 168.822 393.523 167.204L393.484 166.228C352.726 167.855 315.496 181.407 288.652 204.385L289.287 205.127Z" fill="#D8DEE8"/>
<path d="M321.066 114.89L322.033 114.758C321.322 109.578 300.935 64.0801 294.704 50.2588C281.811 21.6605 267.553 -8.9593 266.011 -10.6972L265.28 -10.049C266.562 -8.60405 279.629 19.1969 293.815 50.66C306.627 79.0801 320.515 110.878 321.066 114.89Z" fill="#D8DEE8"/>
</g>
<path d="M210.494 431.297C226.793 423.1 242.958 414.583 258.976 405.754C259.327 405.862 253.921 373.1 230.56 363.285C184.597 344.525 198.011 308.068 198.758 289.051C200.982 261.834 186.349 238.477 157.511 248.404C125.342 258.897 103.934 217.217 95.481 175.347C93.0054 154.337 62.5324 138.703 38.5984 141.221C13.9977 143.322 -4.06398 163.575 2.89068 204.73C8.4966 253.259 57.5239 266.141 80.1298 283.367C102.355 300.266 75.3578 330.081 109.2 339.975C137.997 349.224 170.932 351.481 168.307 377.023C165.309 402.42 174.169 419.124 210.494 431.297Z" fill="url(#paint3_linear_228_6873)"/>
<mask id="mask2_228_6873" style="mask-type:luminance" maskUnits="userSpaceOnUse" x="1" y="140" width="258" height="292">
<path d="M210.495 431.297C226.794 423.1 242.959 414.583 258.977 405.754C259.327 405.862 253.922 373.1 230.561 363.285C184.598 344.525 198.012 308.069 198.759 289.051C200.983 261.834 186.35 238.477 157.512 248.404C125.343 258.897 103.935 217.217 95.482 175.348C93.0064 154.337 62.5334 138.703 38.5994 141.221C13.9987 143.322 -4.06301 163.575 2.89166 204.73C8.49758 253.259 57.5249 266.142 80.1307 283.367C102.356 300.266 75.3587 330.081 109.201 339.975C137.998 349.224 170.933 351.482 168.308 377.023C165.31 402.42 174.17 419.124 210.495 431.297Z" fill="white"/>
</mask>
<g mask="url(#mask2_228_6873)">
<path d="M234.794 424.629C234.702 424.354 195.29 365.474 144.675 312.548C137.156 303.747 129.266 294.974 121.637 286.489C79.148 239.241 39.0149 194.612 41.3246 128.141L40.2549 128.223C37.935 195.006 78.1683 239.745 120.764 287.112C128.39 295.593 136.276 304.362 143.803 313.173C194.692 366.385 233.584 424.638 233.777 425.017L234.794 424.629Z" fill="#BEB8F2"/>
<path d="M82.6334 242.571L83.1918 241.728C57.9364 231.023 26.115 214.344 9.01974 205.384C-4.81619 198.132 -4.85853 198.152 -5.35645 198.409L-5.12725 198.801L-5.23471 199.255C-4.57088 199.401 1.14881 202.399 8.38964 206.194C25.497 215.16 57.3405 231.851 82.6334 242.571Z" fill="#BEB8F2"/>
<path d="M68.5627 220.419C65.3308 199.029 70.5185 182.315 75.4398 172.06C80.8004 160.89 87.2675 154.317 88.1786 153.829L87.9919 153.528L88.1922 152.954C87.8858 152.904 87.6158 153.07 87.2235 153.393C81.6116 158.03 61.8176 183.032 67.5009 220.646L68.5627 220.419Z" fill="#BEB8F2"/>
<path d="M175.117 348.174L176.1 347.708C156.078 309.783 175.451 260.741 184.709 241.416C185.207 240.378 185.366 240.041 185.41 239.879L184.37 239.771L184.89 239.825L184.371 239.768C184.336 239.882 184.053 240.47 183.728 241.15C177.051 255.087 172.196 268.961 169.297 282.386C163.728 308.176 165.686 330.31 175.117 348.174Z" fill="#BEB8F2"/>
<path d="M87.0974 325.03L86.9122 324.623L86.8928 325.082L86.3926 324.789L86.6319 324.254C86.6331 324.253 86.6352 324.252 86.6379 324.25C87.3137 323.936 130.981 310.495 161.164 330.541L160.452 331.302C130.57 311.457 87.5025 324.874 87.0974 325.03Z" fill="#BEB8F2"/>
<path d="M228.169 415.075C224.911 407.091 223.464 392.001 235.078 365.453C235.737 363.946 235.737 363.946 235.62 363.74L234.648 364.226L235.134 363.983L234.609 363.973C234.579 364.082 234.349 364.608 234.083 365.218C222.35 392.037 223.839 407.351 227.155 415.474L228.169 415.075Z" fill="#BEB8F2"/>
<path d="M217.368 401.732L218.268 401.141C208.044 388.481 179.936 386.625 164.092 386.646C163.589 386.646 163.266 386.647 163.148 386.64L162.95 387.566C163.077 387.574 163.425 387.574 163.966 387.573C179.623 387.553 207.381 389.366 217.368 401.732Z" fill="#BEB8F2"/>
</g>
<path d="M272.789 73.9175L306.873 416.716C307.38 421.821 303.866 426.284 299.05 426.635L132.978 440.545C122.855 440.9 117.392 435.447 116.842 430.045L79.9123 67.1913C79.3576 61.7407 84.4152 56.9164 94.642 57.1246L262.976 64.2216C267.867 64.4061 272.277 68.7693 272.789 73.9175Z" fill="url(#paint4_linear_228_6873)"/>
<path d="M280.338 73.4802L314.566 418.045C315.075 423.176 311.546 427.663 306.711 428.017L134.537 440.638C129.162 441.032 124.299 436.913 123.747 431.483L86.6521 66.7059C86.0951 61.226 90.1204 56.9117 95.5821 57.1182L270.485 63.7335C275.396 63.9194 279.824 68.3054 280.338 73.4802Z" fill="#26264F"/>
<path d="M276.716 92.4926L308.461 411.853C308.938 416.647 305.634 420.832 301.109 421.154L139.168 432.665C134.169 433.02 129.648 429.174 129.134 424.118L94.8966 87.1893C94.3785 82.0901 98.1163 78.0498 103.19 78.2114L267.505 83.441C272.095 83.5868 276.235 87.6603 276.716 92.4926Z" fill="url(#paint5_linear_228_6873)"/>
<path d="M189.613 71.3714C189.798 73.2146 188.497 74.66 186.705 74.5995C184.911 74.5391 183.305 72.9928 183.119 71.1464C182.933 69.2995 184.239 67.8541 186.033 67.9181C187.826 67.982 189.428 69.528 189.613 71.3714Z" fill="white"/>
<g opacity="0.6">
<path d="M173.668 239.561C156.557 189.002 186.34 163.531 169.473 116.702C160.297 91.2225 141.927 72.242 121.718 58.1068L95.5775 57.1182C90.1154 56.9116 86.0905 61.226 86.6472 66.7059L123.742 431.483C124.294 436.913 129.157 441.032 134.532 440.638L283.18 429.742C282.713 391.654 273.036 364.546 262.275 345.276C232.702 292.324 191.386 291.914 173.668 239.561Z" fill="white"/>
</g>
<path opacity="0.8" d="M207.075 237.61C236.094 237.61 259.62 214.084 259.62 185.064C259.62 156.045 236.094 132.519 207.075 132.519C178.055 132.519 154.529 156.045 154.529 185.064C154.529 214.084 178.055 237.61 207.075 237.61Z" fill="white"/>
<path opacity="0.8" d="M215.609 313.807C183.32 316.862 151.514 306.178 126.301 283.39C100.681 260.235 85.2568 227.665 83.1892 191.97C81.1217 156.274 92.6944 122.341 115.49 96.7425C137.924 71.5496 168.31 57.7261 200.764 57.5137C232.514 57.3059 262.497 70.1661 285.45 93.447C308.06 116.38 321.417 146.97 323.321 179.849C325.225 212.727 315.48 244.484 295.651 269.559C275.521 295.014 247.198 310.817 215.609 313.807ZM201.126 63.7647C136.718 64.324 85.4832 121.703 89.5345 191.649C93.5859 261.596 151.149 313.483 215.247 307.556C276.641 301.879 321.663 244.807 317.916 180.121C314.169 115.435 262.818 63.2291 201.126 63.7647Z" fill="white"/>
<path opacity="0.8" d="M100.766 81.4143C99.5194 59.8875 116.103 42.415 136.95 42.3898C156.905 42.3654 173.402 58.4706 174.554 78.3606C175.706 98.2507 161.15 115.641 141.286 117.265C120.537 118.961 102.013 102.941 100.766 81.4143Z" fill="white"/>
<g opacity="0.5">
<path d="M106.798 81.1641C105.752 63.1143 119.64 48.4346 137.135 48.3781C153.918 48.3241 167.818 61.8551 168.788 78.5985C169.758 95.342 157.488 109.956 140.778 111.288C123.361 112.677 107.843 99.214 106.798 81.1641Z" fill="#FFDADA"/>
</g>
<path opacity="0.5" d="M136.095 51.1276C152.892 51.0582 166.801 64.5822 167.772 81.3324C168.002 85.3157 167.479 89.1693 166.336 92.7541C168.177 88.43 169.078 83.616 168.788 78.5988C167.818 61.8553 153.918 48.3241 137.134 48.3781C123.659 48.4218 112.328 57.1474 108.307 69.4301C113.04 58.6217 123.656 51.1792 136.095 51.1276Z" fill="white"/>
<path d="M122.172 95.6997C121.111 95.72 120.099 95.3313 119.307 94.5959C118.511 93.8565 118.037 92.8524 117.974 91.7692L116.692 69.6226C116.561 67.366 118.276 65.4823 120.512 65.4235L155.306 64.5081C156.345 64.4951 157.333 64.8771 158.104 65.6228C158.863 66.3564 159.315 67.3421 159.376 68.3984L160.604 89.5909C160.729 91.7567 159.14 93.6145 157.059 93.732L122.327 95.694C122.275 95.6969 122.224 95.6987 122.172 95.6997ZM155.483 66.9151L120.692 67.8588C119.729 67.8848 118.989 68.6651 119.043 69.5981L120.324 91.7274C120.349 92.1424 120.53 92.5274 120.836 92.8115C121.176 93.1284 121.626 93.284 122.102 93.2614L156.837 91.3276C157.704 91.2791 158.367 90.5179 158.316 89.6301L157.088 68.4211C157.064 68.0142 156.89 67.6349 156.598 67.3529C156.294 67.0598 155.909 66.9003 155.483 66.9151Z" fill="#FCB1B1"/>
<path d="M139.129 81.7529C138.081 81.7682 137.016 81.4189 136.113 80.6976L119.723 67.596C119.197 67.1749 119.078 66.4078 119.458 65.8833C119.838 65.3585 120.574 65.2748 121.1 65.6961L137.474 78.8011C138.42 79.5586 139.729 79.497 140.587 78.6578L154.763 64.8068C155.216 64.3662 155.942 64.4115 156.387 64.9081C156.832 65.4048 156.827 66.1653 156.376 66.6069L142.214 80.4598C141.353 81.3027 140.251 81.7366 139.129 81.7529Z" fill="#FCB1B1"/>
<g opacity="0.8">
<path d="M112.169 163.854C127.423 178.496 128.814 202.515 115.308 218.055C101.521 233.919 77.1027 235.412 60.7193 220.812C43.9815 205.896 42.5059 180.418 57.4582 164.512C72.0942 148.943 96.5969 148.908 112.169 163.854Z" fill="white"/>
</g>
<g opacity="0.5">
<path d="M107.2 169.241C119.546 181.052 120.671 200.461 109.735 213C98.5921 225.775 78.9084 226.925 65.7348 215.144C52.3033 203.132 51.1172 182.654 63.1112 169.848C74.875 157.289 94.6207 157.206 107.2 169.241Z" fill="#FFDADA"/>
</g>
<path opacity="0.5" d="M107.196 169.24C94.6168 157.205 74.8712 157.288 63.1074 169.847C62.9975 169.965 62.8967 170.087 62.7891 170.206C74.7018 161.415 91.629 162.492 102.866 173.213C115.247 185.027 116.373 204.465 105.404 217.038C105.373 217.074 105.34 217.107 105.308 217.143C106.89 215.935 108.374 214.554 109.731 212.999C120.667 200.46 119.542 181.051 107.196 169.24Z" fill="#FFE7E7"/>
<path d="M100.424 209.08L106.103 208.832L104.24 176.666L98.5537 176.785L100.424 209.08Z" fill="#FCB1B1"/>
<path d="M90.2184 209.525L95.9784 209.274L95.0402 193.076L89.2764 193.262L90.2184 209.525Z" fill="#FCB1B1"/>
<path d="M79.8625 209.977L85.7059 209.722L83.637 174.002L77.7852 174.112L79.8625 209.977Z" fill="#FCB1B1"/>
<path d="M69.3553 210.437L75.2839 210.178L73.509 179.536L67.5732 179.67L69.3553 210.437Z" fill="#FCB1B1"/>
<path opacity="0.8" d="M237.565 51.5636C251.079 38.073 273.331 39.4951 287.254 53.8906C300.73 67.8236 301.982 89.4493 290.097 102.981C277.818 116.962 255.69 117.682 240.587 103.738C224.95 89.3022 223.574 65.5306 237.565 51.5636Z" fill="white"/>
<g opacity="0.5">
<path d="M241.385 55.4635C252.901 43.9358 271.898 45.112 283.805 57.3954C295.344 69.3001 296.416 87.7981 286.235 99.3589C275.731 111.288 256.835 111.864 243.962 99.9505C230.654 87.6346 229.481 67.3806 241.385 55.4635Z" fill="#FFDADA"/>
</g>
<path opacity="0.3" d="M240.026 58.1644C251.553 46.6194 270.569 47.7783 282.487 60.0578C291.824 69.6775 294.308 83.5958 289.559 94.6781C295.984 83.2468 293.901 67.8067 283.809 57.3959C271.902 45.1122 252.905 43.9361 241.39 55.4637C238.896 57.9604 236.983 60.8305 235.628 63.9189C236.817 61.8544 238.277 59.9163 240.026 58.1644Z" fill="white"/>
<path d="M281.184 75.6899C281.316 77.9692 281.105 80.0593 280.55 81.9613C279.995 83.8641 279.141 85.3643 277.989 86.4621C276.835 87.5609 275.454 88.1246 273.844 88.1528C272.769 88.1716 271.801 87.9062 270.94 87.3566C270.078 86.8066 269.438 86.0735 269.021 85.1576L268.672 85.1632C267.217 87.2414 265.27 88.3025 262.83 88.3452C260.239 88.3905 258.144 87.5762 256.548 85.9013C254.951 84.2245 254.066 81.9073 253.894 78.9509C253.699 75.579 254.527 72.8504 256.377 70.7672C258.225 68.6871 260.729 67.6318 263.888 67.5996C265.144 67.5868 266.534 67.7039 268.058 67.9507C269.58 68.1973 270.838 68.4979 271.833 68.853L272.006 80.5068C272.134 82.7142 272.75 83.8091 273.853 83.7915C274.781 83.7767 275.478 83.0234 275.943 81.532C276.407 80.0411 276.57 78.0988 276.432 75.7049C276.284 73.1523 275.668 70.9024 274.583 68.9545C273.498 67.0052 272.043 65.5227 270.217 64.507C268.39 63.4899 266.338 62.9908 264.061 63.0104C261.108 63.0358 258.575 63.7199 256.466 65.064C254.353 66.4103 252.783 68.3408 251.757 70.8554C250.73 73.3721 250.312 76.2714 250.502 79.5513C250.757 83.9673 252.041 87.3369 254.349 89.657C256.654 91.9739 259.858 93.0918 263.956 93.0135C265.505 92.984 267.194 92.7646 269.023 92.3557C270.85 91.9473 272.635 91.3693 274.379 90.622L274.644 95.1927C271.62 96.7004 268.205 97.4949 264.396 97.5736C258.833 97.6887 254.388 96.1804 251.072 93.0433C247.75 89.8992 245.92 85.4718 245.59 79.766C245.361 75.8073 245.955 72.2037 247.372 68.9581C248.788 65.716 250.921 63.1675 253.767 61.3129C256.608 59.4621 259.938 58.5245 263.756 58.4976C266.966 58.475 269.868 59.1698 272.465 60.58C275.057 61.9877 277.108 64.0001 278.62 66.6172C280.131 69.2313 280.985 72.2552 281.184 75.6899ZM259.011 78.9742C259.206 82.3401 260.564 84.003 263.081 83.9629C264.396 83.942 265.367 83.4207 265.995 82.3993C266.622 81.3784 266.942 79.7295 266.956 77.4527L266.935 72.176C266.181 72.0097 265.337 71.932 264.403 71.9429C262.576 71.9644 261.189 72.6026 260.244 73.8584C259.297 75.1151 258.886 76.8206 259.011 78.9742Z" fill="#FCB1B1"/>
<path opacity="0.8" d="M293.757 151.632C306.763 137.889 328.21 138.531 341.647 152.233C354.654 165.497 355.885 186.753 344.442 200.481C332.62 214.663 311.295 216.116 296.726 202.896C281.646 189.213 280.294 165.858 293.757 151.632Z" fill="white"/>
<g opacity="0.5">
<path d="M297.443 155.342C308.526 143.6 326.836 144.111 338.327 155.802C349.464 167.134 350.517 185.315 340.715 197.045C330.603 209.146 312.393 210.35 299.975 199.054C287.14 187.378 285.988 167.479 297.443 155.342Z" fill="#FFDADA"/>
</g>
<path opacity="0.3" d="M296.136 158.047C307.231 146.288 325.558 146.781 337.059 158.468C346.071 167.625 348.481 181.248 343.914 192.323C350.096 180.847 348.071 165.712 338.331 155.802C326.84 144.111 308.531 143.6 297.447 155.342C295.048 157.885 293.207 160.776 291.905 163.862C293.048 161.789 294.453 159.832 296.136 158.047Z" fill="white"/>
<path d="M303.56 171.207C303.902 177.123 310.933 190.856 315.837 199.787C317.875 203.498 322.667 203.474 324.274 199.745C328.137 190.776 333.563 177.002 333.221 171.092C332.693 161.974 325.63 154.603 317.442 154.63C309.248 154.656 303.031 162.078 303.56 171.207ZM310.433 171.181C310.15 166.28 313.486 162.296 317.885 162.28C322.282 162.264 326.075 166.222 326.359 171.119C326.643 176.016 323.309 180.001 318.912 180.02C314.514 180.038 310.717 176.081 310.433 171.181Z" fill="#FCB1B1"/>
<path d="M319.081 450.367C319.081 450.367 305.713 457.16 305.495 458.244C305.277 459.329 314.092 457.881 317.69 458.037C321.289 458.194 324.249 457.005 323.923 455.3C323.597 453.596 322.338 449.31 322.338 449.31L319.081 450.367Z" fill="url(#paint6_linear_228_6873)"/>
<path d="M318.593 444.854L319.406 451.583C319.406 451.583 321.522 452.426 322.944 451.43L323.55 444.049L318.593 444.854Z" fill="url(#paint7_linear_228_6873)"/>
<path d="M381.54 445.016L383.095 447.807C383.53 448.587 383.659 449.526 383.451 450.416C382.907 452.737 381.821 457.26 381.348 458.439C380.703 460.045 372.052 461 372.052 461C372.052 461 371.281 459.786 373.077 458.32C374.873 456.854 376.027 456.624 376.661 454.46C377.295 452.297 377.718 446.178 377.718 446.178L381.54 445.016Z" fill="url(#paint8_linear_228_6873)"/>
<path d="M375.069 437.924C375.638 438.43 378.416 447.859 378.416 447.859C378.416 447.859 379.315 449.144 381.023 447.247C382.732 445.349 381.796 446.396 381.796 446.396L381.476 437.122L375.069 437.924Z" fill="url(#paint9_linear_228_6873)"/>
<path d="M311.237 309.662C310.531 329.735 310.503 351.543 311.536 374.841C312.699 401.076 315.036 425.324 317.982 447.304C319.077 447.344 320.227 447.35 321.429 447.312C322.241 447.287 323.027 447.243 323.787 447.184C325.316 442.626 327.123 436.633 328.74 429.474C330.441 421.946 331.468 415.193 332.199 408.736C334.773 386.001 331.756 384.017 333.845 367.168C335.695 352.246 338.326 351.663 341.415 330.477C344.766 307.489 342.272 304.04 341.058 302.795C335.894 297.491 323.762 301.102 311.237 309.662Z" fill="url(#paint10_linear_228_6873)"/>
<path opacity="0.3" d="M341.058 302.794C336.132 297.735 324.866 300.798 312.968 308.519C326.656 325.054 328.148 335.78 326.507 342.74C324.653 350.606 319.014 352.872 319.036 361.473C319.062 372.043 327.594 374.843 327.413 386.028C327.293 393.424 323.544 393.347 322.658 402.482C321.611 413.291 326.509 417.016 324.922 425.013C324.24 428.453 322.292 432.949 316.744 437.58C317.144 440.864 317.554 444.115 317.981 447.304C319.076 447.343 320.227 447.35 321.428 447.311C322.24 447.287 323.027 447.242 323.787 447.184C325.315 442.626 327.122 436.632 328.74 429.473C330.441 421.945 331.467 415.193 332.198 408.736C334.772 386 331.756 384.017 333.845 367.168C335.695 352.245 338.326 351.663 341.414 330.476C344.766 307.488 342.271 304.04 341.058 302.794Z" fill="url(#paint11_linear_228_6873)"/>
<path d="M319.716 309.325C331.502 328.607 344.215 352.604 355.583 381.327C364.175 403.033 370.406 423.414 374.98 441.577C375.6 441.897 377.06 442.537 378.926 442.261C381.471 441.884 382.997 440.068 383.395 439.561C385.257 426.541 385.052 415.513 384.42 407.554C384.015 402.459 383.299 393.973 380.394 383.497C377.141 371.763 374.903 371.103 370.659 358.689C366.252 345.803 367.32 342.587 363.1 326.462C361.367 319.837 358.465 309.979 353.678 298.187C342.357 301.899 331.036 305.612 319.716 309.325Z" fill="url(#paint12_linear_228_6873)"/>
<path d="M316.579 225.548C303.565 217.048 297.989 218.028 294.216 210.394C290.484 202.843 290.493 190.863 296.668 184.516C297.121 184.05 301.825 179.367 308.191 180.169C317.818 181.383 318.527 193.545 329.326 199.117C338.476 203.839 348.454 200.518 355.207 198.27C371.469 192.859 373.883 182.622 382.315 184.253C392.879 186.298 393.814 203.285 404.339 204.332C411.374 205.031 413.05 197.651 422.298 195.619C433.165 193.23 445.089 200.292 451.777 208.878C464 224.572 460.781 247.997 453.132 262.296C446.849 274.043 433.34 287.555 421.959 284.648C412.968 282.352 410.041 271.018 402.306 272.146C396.807 272.948 396.608 278.922 390.108 281.996C379.434 287.045 366.256 277.422 362.662 274.798C352.416 267.316 354.048 262.531 340.837 247.531C335.619 241.607 328.104 233.074 316.579 225.548Z" fill="url(#paint13_linear_228_6873)"/>
<path d="M273.673 224.11C274.413 227.827 285.974 225.834 288.36 232.581C289.641 236.201 286.922 238.501 286.808 244.65C286.681 251.534 289.962 255.443 292.479 260.858C296.165 268.789 296.179 276.564 296.206 292.113C296.245 314.247 291.351 318.698 295.528 325.831C300.966 335.117 314.024 335.709 317.553 335.87C329.623 336.419 331.055 330.007 344.152 329.241C359.11 328.366 361.24 336.496 371.937 333.029C381.709 329.861 384.997 321.435 392.606 323.18C397.362 324.27 398.623 328.145 403.11 327.726C407.619 327.304 412.28 322.836 412.598 318.254C412.993 312.559 406.767 305.385 397.011 305.373C393.134 306.895 386.708 308.659 379.561 306.7C367.851 303.49 361.76 292.356 354.995 279.991C350.315 271.437 341.713 255.714 341.611 235.097C341.568 226.595 343.006 224.108 340.933 219.564C334.204 204.808 308.095 207.009 305.884 207.223C288.094 208.937 272.78 219.621 273.673 224.11Z" fill="url(#paint14_linear_228_6873)"/>
<path d="M267.842 242.682L300.636 244.113C300.996 244.129 301.311 244.387 301.433 244.766L316.882 292.682C317.103 293.369 316.409 295.089 315.759 295.011L283.337 290.079C283.007 290.039 282.725 289.797 282.606 289.451L266.533 244.726C266.305 244.063 267.207 242.654 267.842 242.682Z" fill="url(#paint15_linear_228_6873)"/>
<path d="M267.332 243.855L300.125 245.286C300.486 245.301 300.801 245.56 300.923 245.939L316.371 293.855C316.593 294.542 316.095 295.252 315.445 295.174L282.827 291.252C282.497 291.212 282.215 290.969 282.095 290.624L266.472 245.198C266.244 244.535 266.697 243.827 267.332 243.855Z" fill="white"/>
<path d="M276.298 245.639L275.035 241.82C274.921 241.475 275.149 241.108 275.478 241.108H287.414C287.62 241.108 287.802 241.257 287.864 241.477L289.065 245.702C289.163 246.049 288.926 246.401 288.6 246.389L276.727 245.984C276.535 245.978 276.365 245.841 276.298 245.639Z" fill="url(#paint16_linear_228_6873)"/>
<path opacity="0.3" d="M296.486 283.574C294.356 275.851 297.862 270.822 294.283 264.821C289.222 256.333 278.35 259.925 274.97 253.076C274.058 251.229 273.622 248.477 274.852 244.182L267.332 243.855C266.697 243.827 266.244 244.534 266.472 245.198L282.095 290.623C282.214 290.969 282.497 291.211 282.826 291.251L302.651 293.636C299.12 290.193 297.352 286.713 296.486 283.574Z" fill="url(#paint17_linear_228_6873)"/>
<path d="M320.434 277.834C320.434 277.834 315.479 276.732 313.568 275.388C311.656 274.042 309.63 271.881 306.812 271.999C303.994 272.117 301.159 273.718 302.46 274.087C303.762 274.454 306.193 277.341 308.051 278.478C309.908 279.614 314.153 279.717 314.944 279.655C315.734 279.593 318.854 281.691 318.854 281.691L320.434 277.834Z" fill="url(#paint18_linear_228_6873)"/>
<path opacity="0.3" d="M397.014 305.374C393.137 306.895 386.71 308.659 379.563 306.7C367.853 303.49 361.762 292.357 354.997 279.991C350.317 271.437 341.716 255.714 341.613 235.097C341.571 226.595 343.008 224.108 340.936 219.564C340.606 218.841 340.217 218.17 339.799 217.526C334.687 221.39 332.705 225.259 332.126 228.656C330.716 236.925 337.364 243.687 333.905 250.819C330.591 257.65 322.398 255.76 320.69 261.616C318.847 267.934 327.914 271.744 328.314 281.506C328.794 293.221 316.195 298.958 318.403 306.794C320.317 313.585 330.86 313.096 330.855 316.739C330.849 321.07 331.181 312.127 318.403 306.794C314.53 305.178 296.304 318.63 294.089 316.269C293.612 320.086 293.698 322.701 295.531 325.831C300.969 335.117 314.027 335.709 317.556 335.87C329.626 336.419 331.058 330.007 344.155 329.241C359.112 328.366 361.242 336.496 371.94 333.029C381.712 329.861 385 321.435 392.609 323.18C397.365 324.27 398.626 328.145 403.113 327.726C407.622 327.304 412.283 322.836 412.6 318.254C412.995 312.559 406.77 305.385 397.014 305.374Z" fill="url(#paint19_linear_228_6873)"/>
<path d="M320.306 275.539C318.781 278.57 317.256 281.6 315.731 284.631C318.082 285.919 343.215 299.214 361.432 286.052C363.685 284.425 369.671 280.099 372.898 271.63C376.454 262.294 374.459 253.615 373.165 247.977C369.961 234.022 360.902 219.384 348.048 213.503C343.138 211.256 337.309 210.119 331.826 209.051C327.176 208.144 319.868 207.033 319.713 207.82C319.637 208.204 321.335 208.694 322.514 209.44C329.757 214.021 320.561 232.938 329.073 242.01C337.227 250.701 347.81 249.266 349.516 257.142C350.309 260.804 348.667 264.098 347.936 265.565C343.856 273.753 332.874 277.418 320.306 275.539Z" fill="url(#paint20_linear_228_6873)"/>
<path d="M303.248 193.617C303.248 193.617 306.2 203.211 309.876 204.705C313.552 206.198 319.363 207.913 320.093 208.578C320.822 209.241 300.563 216.597 289.203 213.211C292.44 211.628 293.306 211.121 293.306 211.121C294.17 210.615 295.782 209.673 297.295 208.176C298.325 207.157 299.937 205.26 301.15 202.108L300.088 196.661L303.248 193.617Z" fill="url(#paint21_linear_228_6873)"/>
<path d="M304.572 197.805C304.572 197.805 302.861 202.057 298.804 201.404C295.171 200.82 295.356 190.603 297.824 188.863C298.647 188.284 300.317 188.063 301.557 188.57C302.429 188.926 305.023 191.302 304.445 194.783C305.246 194.307 306.043 194.381 306.319 194.809C306.671 195.352 306.101 196.337 305.973 196.56C305.526 197.333 304.876 197.673 304.572 197.805Z" fill="url(#paint22_linear_228_6873)"/>
<g opacity="0.2">
<path fill-rule="evenodd" clip-rule="evenodd" d="M173.465 181.194C173.715 177.407 174.588 173.728 176.067 170.229C177.783 166.174 180.238 162.532 183.365 159.406C186.491 156.279 190.133 153.824 194.189 152.108C198.389 150.332 202.849 149.431 207.445 149.431C212.041 149.431 216.501 150.332 220.702 152.108C224.758 153.823 228.4 156.279 231.526 159.406C234.653 162.532 237.108 166.174 238.823 170.229C240.6 174.43 241.501 178.89 241.501 183.486C241.501 188.082 240.6 192.542 238.823 196.742C237.108 200.798 234.653 204.44 231.526 207.566C228.4 210.693 224.758 213.148 220.702 214.864C216.502 216.64 212.042 217.541 207.445 217.541C205.937 217.541 204.715 216.319 204.715 214.811C204.715 213.303 205.937 212.081 207.445 212.081C211.307 212.081 215.051 211.325 218.575 209.835C221.98 208.395 225.038 206.333 227.665 203.705C230.292 201.078 232.355 198.02 233.795 194.615C235.285 191.091 236.041 187.347 236.041 183.485C236.041 179.624 235.285 175.879 233.795 172.355C232.355 168.95 230.292 165.892 227.665 163.265C225.038 160.638 221.98 158.576 218.575 157.136C215.051 155.645 211.307 154.889 207.445 154.889C203.583 154.889 199.839 155.645 196.315 157.136C192.91 158.576 189.852 160.638 187.225 163.265C184.598 165.892 182.536 168.95 181.095 172.355C179.749 175.54 179.002 178.904 178.87 182.372C179.385 183.069 179.69 183.93 179.69 184.862C179.69 187.178 177.813 189.055 175.497 189.055C173.182 189.055 171.304 187.178 171.304 184.862C171.304 183.284 172.177 181.909 173.465 181.194Z" fill="url(#paint23_linear_228_6873)"/>
<path fill-rule="evenodd" clip-rule="evenodd" d="M197.2 173.242C194.465 175.978 192.958 179.615 192.958 183.484L192.957 183.484C192.957 186.476 193.859 189.33 195.534 191.736L185.012 202.393C184.355 203.058 184.028 203.924 184.028 204.791C184.028 205.671 184.366 206.551 185.043 207.219C186.384 208.543 188.545 208.529 189.869 207.188L200.638 196.28C200.639 196.28 200.639 196.279 200.64 196.278C202.709 197.381 205.03 197.966 207.44 197.966C211.309 197.966 214.946 196.46 217.681 193.725C220.418 190.989 221.924 187.352 221.924 183.484C221.924 179.615 220.418 175.978 217.682 173.242C214.947 170.507 211.309 169.001 207.441 169.001C203.573 169.001 199.935 170.507 197.2 173.242ZM213.34 177.586C214.915 179.161 215.783 181.256 215.783 183.484C215.783 185.711 214.915 187.806 213.34 189.381C211.765 190.956 209.67 191.824 207.442 191.824C205.215 191.824 203.12 190.956 201.545 189.381C199.97 187.806 199.102 185.711 199.102 183.484C199.102 181.256 199.97 179.161 201.545 177.586C203.12 176.011 205.215 175.143 207.442 175.143C209.67 175.143 211.765 176.011 213.34 177.586Z" fill="url(#paint24_linear_228_6873)"/>
<path fill-rule="evenodd" clip-rule="evenodd" d="M188.364 180.902C189.291 181.689 189.88 182.863 189.88 184.175C189.88 186.543 187.96 188.463 185.591 188.463C183.222 188.463 181.302 186.543 181.302 184.175C181.302 182.839 181.913 181.646 182.87 180.859C183.124 178.451 183.728 176.108 184.676 173.867C185.921 170.924 187.702 168.282 189.97 166.014C192.239 163.745 194.881 161.964 197.824 160.719C200.872 159.43 204.108 158.776 207.443 158.776C210.778 158.776 214.014 159.43 217.062 160.719C220.005 161.964 222.647 163.746 224.916 166.014C227.185 168.282 228.966 170.924 230.21 173.867C231.499 176.915 232.153 180.152 232.153 183.487C232.153 186.821 231.499 190.058 230.21 193.106C228.965 196.049 227.184 198.691 224.916 200.96C222.647 203.228 220.005 205.01 217.062 206.254C214.014 207.543 210.778 208.197 207.443 208.197C205.935 208.197 204.713 206.974 204.713 205.467C204.713 203.959 205.935 202.737 207.443 202.737C212.585 202.737 217.419 200.734 221.055 197.099C224.691 193.463 226.693 188.629 226.693 183.487C226.693 178.345 224.691 173.51 221.055 169.875C217.419 166.239 212.585 164.236 207.443 164.236C202.301 164.236 197.467 166.239 193.831 169.875C190.812 172.894 188.919 176.74 188.364 180.902Z" fill="url(#paint25_linear_228_6873)"/>
</g>
<path d="M223.368 192.487C223.368 192.487 221.169 189.41 219.773 187.123C218.378 184.836 211.864 178.412 211.864 178.412C211.864 178.412 211.367 179.431 212.77 181.063C214.172 182.694 217.123 185.49 216.444 186.672C215.766 187.855 213.856 188.898 215.234 191.131C216.613 193.365 219.01 191.84 220.235 193.631C221.461 195.422 222.716 197.377 222.716 197.377L223.368 192.487Z" fill="url(#paint26_linear_228_6873)"/>
<path d="M224.226 190.479C222.742 192.989 221.259 195.497 219.775 198.006C221.32 203.05 223.982 210.054 228.645 217.444C230.702 220.703 237.08 230.266 247.879 237.956C262.578 248.423 289.358 258.19 297.198 247.05C304.193 237.111 292.902 215.079 290.823 211.123C286.615 213.329 279.7 216.255 270.811 216.947C267.898 217.174 260.315 217.691 251.773 214.757C235.964 209.327 227.187 195.623 224.226 190.479Z" fill="url(#paint27_linear_228_6873)"/>
<path d="M36.6185 443.53C36.6185 447.791 32.9669 451.593 28.4636 452.007C23.9448 452.423 20.2568 449.273 20.2568 444.985C20.2568 440.697 23.9448 436.891 28.4636 436.503C32.9669 436.116 36.6185 439.269 36.6185 443.53ZM23.7849 444.672C23.7849 447.116 25.886 448.914 28.4636 448.681C31.0367 448.448 33.1258 446.276 33.1258 443.841C33.1258 441.405 31.0367 439.605 28.4636 439.829C25.886 440.054 23.7849 442.226 23.7849 444.672Z" fill="white"/>
<path d="M43.5666 405.889C43.5666 410.138 39.9347 413.876 35.4564 414.223C30.9619 414.571 27.2939 411.376 27.2939 407.099C27.2939 402.823 30.9619 399.082 35.4564 398.761C39.9347 398.442 43.5666 401.639 43.5666 405.889ZM30.8026 406.838C30.8026 409.277 32.8922 411.101 35.4564 410.906C38.0148 410.711 40.0927 408.577 40.0927 406.147C40.0927 403.718 38.0147 401.893 35.4564 402.079C32.8922 402.265 30.8026 404.4 30.8026 406.838Z" fill="white"/>
<path d="M16.6195 370.898C16.6195 375.193 12.9104 378.92 8.33664 379.209C3.74597 379.498 0 376.218 0 371.896C0 367.574 3.74614 363.844 8.33664 363.582C12.9104 363.321 16.6195 366.603 16.6195 370.898ZM3.58354 371.681C3.58354 374.145 5.71769 376.018 8.33664 375.856C10.9496 375.695 13.0718 373.566 13.0718 371.111C13.0718 368.656 10.9496 366.782 8.33664 366.935C5.71769 367.087 3.58354 369.217 3.58354 371.681Z" fill="white"/>
<path d="M65.1855 364.427C65.1855 368.64 61.615 372.288 57.2125 372.56C52.7939 372.832 49.1885 369.605 49.1885 365.365C49.1885 361.125 52.7939 357.475 57.2125 357.229C61.6149 356.985 65.1855 360.213 65.1855 364.427ZM52.6375 365.163C52.6375 367.58 54.6916 369.423 57.2124 369.271C59.7275 369.119 61.7702 367.036 61.7702 364.627C61.7702 362.218 59.7275 360.375 57.2124 360.518C54.6918 360.662 52.6375 362.746 52.6375 365.163Z" fill="white"/>
<path d="M91.4564 419.025V422.269L64.1313 424.52L32.8125 443.808L31.1133 441.053L63.2477 421.312L91.4564 419.025Z" fill="white"/>
<path d="M91.4569 399.771V403.016L41.8301 406.723V403.414L91.4569 399.771Z" fill="white"/>
<path d="M91.4565 380.517V383.762L59.0043 385.936L32.9781 371.575L14.8467 372.676V369.332L34.0083 368.193L60.0136 382.583L91.4565 380.517Z" fill="white"/>
<path d="M91.4578 361.263V364.508L62.9316 366.199V362.918L91.4578 361.263Z" fill="white"/>
<path d="M264.475 335.957C264.475 332.076 267.496 328.772 271.2 328.593C274.891 328.414 277.886 331.409 277.886 335.267C277.886 339.127 274.891 342.429 271.2 342.63C267.496 342.832 264.475 339.839 264.475 335.957ZM275.021 335.415C275.021 333.209 273.308 331.5 271.2 331.605C269.087 331.71 267.365 333.596 267.365 335.808C267.365 338.022 269.087 339.731 271.2 339.618C273.308 339.506 275.021 337.621 275.021 335.415Z" fill="white"/>
<path d="M258.681 370.155C258.681 366.264 261.717 362.908 265.439 362.674C269.149 362.44 272.158 365.398 272.158 369.266C272.158 373.135 269.149 376.489 265.439 376.745C261.717 377.002 258.681 374.046 258.681 370.155ZM269.28 369.456C269.28 367.245 267.559 365.557 265.439 365.693C263.316 365.829 261.585 367.745 261.585 369.964C261.585 372.182 263.316 373.87 265.439 373.726C267.559 373.583 269.28 371.667 269.28 369.456Z" fill="white"/>
<path d="M280.823 401.897C280.823 398.043 283.802 394.677 287.454 394.395C291.094 394.113 294.047 397.003 294.047 400.835C294.047 404.667 291.094 408.03 287.454 408.334C283.803 408.638 280.823 405.751 280.823 401.897ZM291.223 401.062C291.223 398.871 289.534 397.222 287.454 397.385C285.371 397.549 283.673 399.47 283.673 401.668C283.673 403.866 285.371 405.514 287.454 405.343C289.534 405.173 291.223 403.252 291.223 401.062Z" fill="white"/>
<path d="M240.252 408.464C240.252 404.542 243.336 401.109 247.117 400.811C250.886 400.515 253.943 403.446 253.943 407.345C253.943 411.244 250.886 414.674 247.117 414.994C243.336 415.314 240.252 412.385 240.252 408.464ZM251.019 407.583C251.019 405.355 249.27 403.682 247.117 403.854C244.961 404.027 243.203 405.987 243.203 408.222C243.203 410.459 244.96 412.131 247.117 411.951C249.27 411.771 251.019 409.812 251.019 407.583Z" fill="white"/>
<path d="M217.031 357.04V353.958L241.168 352.558L267.623 335.849L269.023 338.412L241.932 355.563L217.031 357.04Z" fill="white"/>
<path d="M217.031 375.327V372.245L260.134 369.414V372.44L217.031 375.327Z" fill="white"/>
<path d="M217.031 393.614V390.533L245.585 388.437L267.487 401.46L282.249 400.283V403.28L266.636 404.545L244.718 391.546L217.031 393.614Z" fill="white"/>
<path d="M217.031 411.902V408.82L242.206 406.779V409.828L217.031 411.902Z" fill="white"/>
<path d="M198.942 447.904L104.738 457.098C92.2439 458.317 82.0234 449.376 82.0234 437.116V340.552C82.0234 328.292 92.2439 317.93 104.738 317.412L198.942 313.508C210.395 313.033 219.598 322.045 219.598 333.634V424.905C219.598 436.493 210.394 446.786 198.942 447.904Z" fill="url(#paint28_linear_228_6873)"/>
<path d="M201.986 451.157L107.892 460.405C95.4126 461.631 85.2041 452.701 85.2041 440.449V343.942C85.2041 331.689 95.4126 321.326 107.892 320.801L201.986 316.839C213.425 316.358 222.618 325.359 222.618 336.941V428.159C222.618 439.741 213.425 450.033 201.986 451.157Z" fill="url(#paint29_linear_228_6873)"/>
<path opacity="0.3" d="M161.277 411.758C149.782 397.251 161.358 386.03 149.118 369.415C134.318 349.324 110.01 355.47 100.346 336.908C98.2098 332.804 97.2779 328.384 97.1369 323.915C90.0436 327.969 85.2041 335.515 85.2041 343.942V440.449C85.2041 452.702 95.4126 461.631 107.892 460.405L201.986 451.157C211.155 450.256 218.865 443.461 221.569 434.852C205.498 418.079 177.157 431.8 161.277 411.758Z" fill="url(#paint30_linear_228_6873)"/>
<path d="M184.599 427.768L121.855 433.325C114.079 434.013 107.74 428.315 107.74 420.594V356.472C107.74 348.751 114.079 342.163 121.855 341.76L184.599 338.511C191.942 338.131 197.862 343.858 197.862 351.302V413.115C197.863 420.559 191.942 427.117 184.599 427.768Z" fill="url(#paint31_linear_228_6873)"/>
<path d="M186.353 428.781L124.553 434.241C116.896 434.917 110.654 429.342 110.654 421.785V359.031C110.654 351.474 116.896 345.023 124.553 344.624L186.353 341.408C193.587 341.032 199.42 346.635 199.42 353.922V414.433C199.42 421.72 193.587 428.142 186.353 428.781Z" fill="url(#paint32_linear_228_6873)"/>
<path opacity="0.3" d="M161.275 411.758C149.781 397.251 161.356 386.03 149.116 369.414C139.407 356.233 125.63 354.342 114.545 349.359C112.142 351.945 110.654 355.356 110.654 359.031V421.786C110.654 429.343 116.896 434.918 124.553 434.241L186.353 428.782C189.593 428.495 192.545 427.045 194.823 424.884C182.621 423.587 170.034 422.812 161.275 411.758Z" fill="url(#paint33_linear_228_6873)"/>
<g opacity="0.61">
<path d="M134.057 403.779L130.99 414.938C130.361 417.228 128.293 418.948 125.933 419.142L123.366 419.353C119.819 419.645 117.276 416.477 118.316 413.053L132.927 364.947C133.598 362.735 135.625 361.132 137.917 360.997L147.325 360.442C149.587 360.308 151.583 361.653 152.251 363.758L166.671 409.186C167.686 412.383 165.239 415.908 161.803 416.191L158.749 416.442C156.486 416.628 154.488 415.311 153.835 413.199L150.534 402.522L134.057 403.779ZM148.667 393.039L145.095 381.205C144.072 377.891 143.049 373.727 142.195 370.396L142.025 370.406C141.17 373.848 140.316 378.223 139.375 381.591L135.947 393.959L148.667 393.039Z" fill="white"/>
<path d="M188.844 363.041V408.918C188.844 411.706 186.606 414.151 183.84 414.378L181.244 414.592C178.465 414.82 176.208 412.734 176.208 409.931V363.813C176.208 361.011 178.465 358.605 181.244 358.442L183.84 358.289C186.606 358.125 188.844 360.253 188.844 363.041Z" fill="white"/>
</g>
<defs>
<linearGradient id="paint0_linear_228_6873" x1="283.517" y1="426.384" x2="-47.8322" y2="-146.573" gradientUnits="userSpaceOnUse">
<stop stop-color="#FFC444"/>
<stop offset="0.9964" stop-color="#F36F56"/>
</linearGradient>
<linearGradient id="paint1_linear_228_6873" x1="177.447" y1="174.002" x2="384.998" y2="174.002" gradientUnits="userSpaceOnUse">
<stop stop-color="#FFC444"/>
<stop offset="0.9964" stop-color="#F36F56"/>
</linearGradient>
<linearGradient id="paint2_linear_228_6873" x1="346.342" y1="23.0778" x2="283.952" y2="180.377" gradientUnits="userSpaceOnUse">
<stop stop-color="#FFC444"/>
<stop offset="0.9964" stop-color="#F36F56"/>
</linearGradient>
<linearGradient id="paint3_linear_228_6873" x1="166.577" y1="187.63" x2="96.0544" y2="388.061" gradientUnits="userSpaceOnUse">
<stop stop-color="#AA80F9"/>
<stop offset="0.9964" stop-color="#6165D7"/>
</linearGradient>
<linearGradient id="paint4_linear_228_6873" x1="76.2526" y1="248.107" x2="310.206" y2="252.764" gradientUnits="userSpaceOnUse">
<stop stop-color="#444B8C"/>
<stop offset="0.9964" stop-color="#26264F"/>
</linearGradient>
<linearGradient id="paint5_linear_228_6873" x1="277.602" y1="115.203" x2="148.29" y2="344.051" gradientUnits="userSpaceOnUse">
<stop offset="0.0036" stop-color="#E38DDD"/>
<stop offset="1" stop-color="#9571F6"/>
</linearGradient>
<linearGradient id="paint6_linear_228_6873" x1="312.344" y1="426.657" x2="316.068" y2="474.061" gradientUnits="userSpaceOnUse">
<stop stop-color="white"/>
<stop offset="0.9964" stop-color="#EBECF8"/>
</linearGradient>
<linearGradient id="paint7_linear_228_6873" x1="321.191" y1="453.108" x2="320.516" y2="404.144" gradientUnits="userSpaceOnUse">
<stop stop-color="#893976"/>
<stop offset="1" stop-color="#311944"/>
</linearGradient>
<linearGradient id="paint8_linear_228_6873" x1="375.063" y1="421.112" x2="378.797" y2="468.641" gradientUnits="userSpaceOnUse">
<stop stop-color="white"/>
<stop offset="0.9964" stop-color="#DDDDEF"/>
</linearGradient>
<linearGradient id="paint9_linear_228_6873" x1="378.701" y1="452.222" x2="378.026" y2="403.264" gradientUnits="userSpaceOnUse">
<stop stop-color="#893976"/>
<stop offset="1" stop-color="#311944"/>
</linearGradient>
<linearGradient id="paint10_linear_228_6873" x1="310.73" y1="373.825" x2="343.095" y2="373.825" gradientUnits="userSpaceOnUse">
<stop stop-color="#AB316D"/>
<stop offset="1" stop-color="#792D3D"/>
</linearGradient>
<linearGradient id="paint11_linear_228_6873" x1="312.968" y1="373.825" x2="343.094" y2="373.825" gradientUnits="userSpaceOnUse">
<stop stop-color="#AB316D"/>
<stop offset="1" stop-color="#792D3D"/>
</linearGradient>
<linearGradient id="paint12_linear_228_6873" x1="319.716" y1="370.257" x2="384.869" y2="370.257" gradientUnits="userSpaceOnUse">
<stop stop-color="#AB316D"/>
<stop offset="1" stop-color="#792D3D"/>
</linearGradient>
<linearGradient id="paint13_linear_228_6873" x1="366.223" y1="204.138" x2="428.488" y2="261.126" gradientUnits="userSpaceOnUse">
<stop offset="0.0036" stop-color="#26264F"/>
<stop offset="1" stop-color="#444B8C"/>
</linearGradient>
<linearGradient id="paint14_linear_228_6873" x1="339.221" y1="289.502" x2="308.593" y2="434.702" gradientUnits="userSpaceOnUse">
<stop stop-color="#FFC444"/>
<stop offset="0.9964" stop-color="#F36F56"/>
</linearGradient>
<linearGradient id="paint15_linear_228_6873" x1="296.734" y1="260.558" x2="276.453" y2="294.175" gradientUnits="userSpaceOnUse">
<stop offset="0.0036" stop-color="#6165D7"/>
<stop offset="1" stop-color="#AA80F9"/>
</linearGradient>
<linearGradient id="paint16_linear_228_6873" x1="287.679" y1="225.314" x2="281.716" y2="244.83" gradientUnits="userSpaceOnUse">
<stop offset="0.0036" stop-color="#26264F"/>
<stop offset="1" stop-color="#444B8C"/>
</linearGradient>
<linearGradient id="paint17_linear_228_6873" x1="308.579" y1="256.127" x2="258.587" y2="282.736" gradientUnits="userSpaceOnUse">
<stop stop-color="#FF9085"/>
<stop offset="1" stop-color="#FB6FBB"/>
</linearGradient>
<linearGradient id="paint18_linear_228_6873" x1="328.762" y1="300.477" x2="303.806" y2="265.312" gradientUnits="userSpaceOnUse">
<stop stop-color="#C4B0D4"/>
<stop offset="1" stop-color="#893976"/>
</linearGradient>
<linearGradient id="paint19_linear_228_6873" x1="293.842" y1="276.715" x2="412.618" y2="276.715" gradientUnits="userSpaceOnUse">
<stop stop-color="#FFC444"/>
<stop offset="0.9964" stop-color="#F36F56"/>
</linearGradient>
<linearGradient id="paint20_linear_228_6873" x1="336.13" y1="288.85" x2="305.502" y2="434.049" gradientUnits="userSpaceOnUse">
<stop stop-color="#FFC444"/>
<stop offset="0.9964" stop-color="#F36F56"/>
</linearGradient>
<linearGradient id="paint21_linear_228_6873" x1="320.108" y1="180.658" x2="299.406" y2="221.211" gradientUnits="userSpaceOnUse">
<stop stop-color="#311944"/>
<stop offset="1" stop-color="#893976"/>
</linearGradient>
<linearGradient id="paint22_linear_228_6873" x1="336.147" y1="157.082" x2="311.191" y2="183.172" gradientUnits="userSpaceOnUse">
<stop stop-color="#311944"/>
<stop offset="1" stop-color="#893976"/>
</linearGradient>
<linearGradient id="paint23_linear_228_6873" x1="175.872" y1="160.375" x2="244.397" y2="188.808" gradientUnits="userSpaceOnUse">
<stop stop-color="#FE01B2"/>
<stop offset="1" stop-color="#FE0000"/>
</linearGradient>
<linearGradient id="paint24_linear_228_6873" x1="196.326" y1="188.623" x2="221.94" y2="184.186" gradientUnits="userSpaceOnUse">
<stop stop-color="#FEA800"/>
<stop offset="1" stop-color="#FE7A00"/>
</linearGradient>
<linearGradient id="paint25_linear_228_6873" x1="187.111" y1="183.507" x2="244.546" y2="184.936" gradientUnits="userSpaceOnUse">
<stop stop-color="#FEA800"/>
<stop offset="1" stop-color="#FE0000"/>
</linearGradient>
<linearGradient id="paint26_linear_228_6873" x1="211.778" y1="187.894" x2="223.368" y2="187.894" gradientUnits="userSpaceOnUse">
<stop stop-color="#311944"/>
<stop offset="1" stop-color="#893976"/>
</linearGradient>
<linearGradient id="paint27_linear_228_6873" x1="248.845" y1="270.439" x2="218.217" y2="415.638" gradientUnits="userSpaceOnUse">
<stop stop-color="#FFC444"/>
<stop offset="0.9964" stop-color="#F36F56"/>
</linearGradient>
<linearGradient id="paint28_linear_228_6873" x1="161.458" y1="398.718" x2="126.905" y2="355.26" gradientUnits="userSpaceOnUse">
<stop stop-color="#A990BD"/>
<stop offset="1" stop-color="#D772BF"/>
</linearGradient>
<linearGradient id="paint29_linear_228_6873" x1="239.636" y1="242.497" x2="66.6233" y2="532.294" gradientUnits="userSpaceOnUse">
<stop stop-color="#FFFCFB"/>
<stop offset="1" stop-color="#F1C8DE"/>
</linearGradient>
<linearGradient id="paint30_linear_228_6873" x1="237.424" y1="246.196" x2="67.2913" y2="531.168" gradientUnits="userSpaceOnUse">
<stop stop-color="#FFF6F6"/>
<stop offset="1" stop-color="#E0C4D3"/>
</linearGradient>
<linearGradient id="paint31_linear_228_6873" x1="201.204" y1="457.235" x2="167.449" y2="407.509" gradientUnits="userSpaceOnUse">
<stop stop-color="#311944"/>
<stop offset="1" stop-color="#893976"/>
</linearGradient>
<linearGradient id="paint32_linear_228_6873" x1="172.998" y1="348.19" x2="82.7628" y2="541.867" gradientUnits="userSpaceOnUse">
<stop stop-color="#FFC444"/>
<stop offset="0.9964" stop-color="#F36F56"/>
</linearGradient>
<linearGradient id="paint33_linear_228_6873" x1="158.426" y1="378.231" x2="98.2279" y2="507.436" gradientUnits="userSpaceOnUse">
<stop stop-color="#FFC444"/>
<stop offset="0.9964" stop-color="#F36F56"/>
</linearGradient>
</defs>
</svg>
