<svg width="1448" height="673" viewBox="0 0 1448 673" fill="none" xmlns="http://www.w3.org/2000/svg">
<g clip-path="url(#clip0_123_5005)">
<path d="M-1339.05 34.2448C-1500.26 33.5283 -1749 2.68922 -1749 2.68922V179H4652V54.781C4652 54.781 4339.1 6.69349 4134.73 1.68745C3921.83 -3.52747 3804.27 31.9573 3591.21 32.2413C3371.23 32.5345 3249.89 -1.33925 3029.94 1.18657C2783.9 4.01196 2651.36 59.1313 2405.36 55.2819C2196.93 52.0206 2086.2 8.83585 1878.05 1.18657C1610.96 -8.62895 1461.59 46.053 1194.8 33.2431C1059.83 26.7627 987.336 1.31102 852.01 0.184803C662.769 -1.39011 564.122 53.4005 374.887 55.2819C207.744 56.9437 117.41 18.6527 -49.7356 20.2201C-199.851 21.6278 -280.222 54.9861 -430.352 55.2819C-617.863 55.6515 -716.151 5.45448 -903.614 2.68922C-1074.67 0.16592 -1167.95 35.0054 -1339.05 34.2448Z" fill="white" fill-opacity="0.4"/>
<path d="M-1407.89 52.0535C-1542.04 51.341 -1749 20.6742 -1749 20.6742V196H3577V72.475C3577 72.475 3316.65 24.6561 3146.6 19.678C2969.46 14.4922 2871.64 49.7788 2694.37 50.0612C2511.32 50.3528 2410.37 16.6682 2227.35 19.1799C2022.63 21.9896 1912.36 76.801 1707.66 72.9731C1534.24 69.73 1442.11 26.7865 1268.92 19.1799C1046.68 9.41926 922.397 63.7958 700.407 51.0574C588.106 44.6132 527.789 19.3037 415.189 18.1838C257.73 16.6177 175.65 71.1022 18.1964 72.9731C-120.877 74.6256 -196.039 36.5485 -335.114 38.1072C-460.019 39.507 -526.892 72.6789 -651.809 72.9731C-807.829 73.3406 -889.61 23.424 -1045.59 20.6742C-1187.92 18.165 -1265.53 52.8098 -1407.89 52.0535Z" fill="white" fill-opacity="0.4"/>
<path d="M-1427.75 69.2448C-1554.08 68.5283 -1749 37.6892 -1749 37.6892V214H3267V89.781C3267 89.781 3021.81 41.6935 2861.65 36.6875C2694.82 31.4725 2602.69 66.9573 2435.74 67.2413C2263.35 67.5345 2168.27 33.6607 1995.91 36.1866C1803.11 39.012 1699.25 94.1313 1506.47 90.2819C1343.14 87.0206 1256.37 43.8359 1093.26 36.1866C883.954 26.3711 766.908 81.053 557.84 68.2431C452.075 61.7627 395.268 36.311 289.223 35.1848C140.928 33.6099 63.6257 88.4005 -84.6633 90.2819C-215.642 91.9437 -286.43 53.6527 -417.41 55.2201C-535.044 56.6278 -598.025 89.9861 -715.671 90.2819C-862.61 90.6515 -939.631 40.4545 -1086.53 37.6892C-1220.58 35.1659 -1293.67 70.0054 -1427.75 69.2448Z" fill="white" fill-opacity="0.4"/>
<path d="M-1483.5 87.1845C-1587.91 86.4692 -1749 55.6845 -1749 55.6845V231.684H2396.5V107.684C2396.5 107.684 2193.86 59.6817 2061.5 54.6845C1923.62 49.4787 1847.48 84.901 1709.5 85.1845C1567.03 85.4772 1488.45 51.6631 1346 54.1845C1186.66 57.0049 1100.82 112.027 941.5 108.184C806.518 104.929 734.805 61.8203 600 54.1845C427.019 44.3863 330.286 98.9719 157.5 86.1845C70.0901 79.7155 23.1418 54.3087 -64.5 53.1845C-187.059 51.6123 -250.946 106.306 -373.5 108.184C-481.748 109.843 -540.251 71.6199 -648.5 73.1845C-745.72 74.5897 -797.771 107.889 -895 108.184C-1016.44 108.553 -1080.09 58.4449 -1201.5 55.6845C-1312.28 53.1656 -1372.69 87.9437 -1483.5 87.1845Z" fill="white"/>
<path d="M2937.05 638.44C3098.26 639.157 3347 669.996 3347 669.996L3347 493.685L-3054 493.684L-3054 617.903C-3054 617.903 -2741.1 665.991 -2536.73 670.997C-2323.83 676.212 -2206.27 640.727 -1993.21 640.443C-1773.23 640.15 -1651.89 674.024 -1431.94 671.498C-1185.9 668.673 -1053.36 613.553 -807.358 617.403C-598.935 620.664 -488.203 663.849 -280.053 671.498C-12.9561 681.314 136.408 626.632 403.204 639.442C538.172 645.922 610.664 671.374 745.99 672.5C935.231 674.075 1033.88 619.284 1223.11 617.403C1390.26 615.741 1480.59 654.032 1647.74 652.465C1797.85 651.057 1878.22 617.699 2028.35 617.403C2215.86 617.034 2314.15 667.23 2501.61 669.996C2672.67 672.519 2765.95 637.68 2937.05 638.44Z" fill="white" fill-opacity="0.4"/>
<path d="M3005.89 620.632C3140.04 621.344 3347 652.011 3347 652.011L3347 476.685L-1979 476.685L-1979 600.21C-1979 600.21 -1718.65 648.029 -1548.6 653.007C-1371.46 658.192 -1273.64 622.906 -1096.37 622.623C-913.324 622.332 -812.366 656.016 -629.353 653.505C-424.633 650.695 -314.356 595.884 -109.664 599.712C63.7556 602.955 155.89 645.898 329.083 653.505C551.323 663.266 675.603 608.889 897.593 621.627C1009.89 628.072 1070.21 653.381 1182.81 654.501C1340.27 656.067 1422.35 601.583 1579.8 599.712C1718.88 598.059 1794.04 636.136 1933.11 634.578C2058.02 633.178 2124.89 600.006 2249.81 599.712C2405.83 599.344 2487.61 649.261 2643.59 652.011C2785.92 654.52 2863.53 619.875 3005.89 620.632Z" fill="white" fill-opacity="0.4"/>
<path d="M3025.75 603.44C3152.08 604.157 3347 634.996 3347 634.996L3347 458.685L-1669 458.685L-1669 582.904C-1669 582.904 -1423.81 630.991 -1263.65 635.997C-1096.82 641.212 -1004.69 605.727 -837.739 605.443C-665.352 605.15 -570.27 639.024 -397.909 636.498C-205.105 633.673 -101.247 578.553 91.5308 582.403C254.857 585.664 341.629 628.849 504.741 636.498C714.046 646.314 831.092 591.632 1040.16 604.442C1145.93 610.922 1202.73 636.374 1308.78 637.5C1457.07 639.075 1534.37 584.284 1682.66 582.403C1813.64 580.741 1884.43 619.032 2015.41 617.465C2133.04 616.057 2196.03 582.699 2313.67 582.403C2460.61 582.034 2537.63 632.231 2684.53 634.996C2818.58 637.519 2891.67 602.68 3025.75 603.44Z" fill="white" fill-opacity="0.4"/>
<path d="M3081.5 585.501C3185.91 586.216 3347 617.001 3347 617.001L3347 441.001L-798.5 441L-798.5 565C-798.5 565 -595.858 613.003 -463.5 618C-325.619 623.206 -249.479 587.784 -111.5 587.5C30.9705 587.208 109.552 621.022 252 618.5C411.344 615.68 497.178 560.658 656.5 564.5C791.482 567.756 863.195 610.865 998 618.5C1170.98 628.299 1267.71 573.713 1440.5 586.5C1527.91 592.969 1574.86 618.376 1662.5 619.5C1785.06 621.073 1848.95 566.379 1971.5 564.5C2079.75 562.842 2138.25 601.065 2246.5 599.5C2343.72 598.095 2395.77 564.796 2493 564.501C2614.44 564.132 2678.09 614.24 2799.5 617.001C2910.28 619.519 2970.69 584.741 3081.5 585.501Z" fill="white"/>
<rect y="196" width="1448" height="286" fill="white"/>
</g>
<defs>
<clipPath id="clip0_123_5005">
<rect width="1448" height="673" fill="white"/>
</clipPath>
</defs>
</svg>
